<svg xmlns="http://www.w3.org/2000/svg" width="14" height="14" viewBox="0 0 14 14"><path fill="#000" fill-rule="evenodd" d="M0 7.178c0 3.17 2.006 5.86 4.787 6.81.35.066.478-.156.478-.346 0-.17-.006-.622-.01-1.22-1.947.433-2.357-.963-2.357-.963-.319-.83-.778-1.05-.778-1.05-.635-.445.048-.436.048-.436.703.05 1.073.74 1.073.74.624 1.096 1.638.78 2.037.596.063-.464.244-.78.444-.96-1.554-.181-3.188-.797-3.188-3.547 0-.784.273-1.424.72-1.926-.071-.182-.312-.911.07-1.9 0 0 .587-.193 1.924.736A6.552 6.552 0 0 1 7 3.471a6.562 6.562 0 0 1 1.753.241c1.336-.929 1.923-.735 1.923-.735.382.988.141 1.717.07 1.899.448.502.72 1.142.72 1.926 0 2.757-1.637 3.364-3.197 3.542.252.221.475.66.475 1.329 0 .96-.008 1.734-.008 1.969 0 .192.126.415.481.345 2.78-.951 4.783-3.64 4.783-6.81C14 3.214 10.866 0 7 0S0 3.213 0 7.178z"/></svg>